<?xml version="1.0" standalone="no"?>
<!DOCTYPE svg PUBLIC "-//W3C//DTD SVG 20010904//EN"
 "http://www.w3.org/TR/2001/REC-SVG-20010904/DTD/svg10.dtd">
<svg version="1.0" xmlns="http://www.w3.org/2000/svg"
 width="700.000000pt" height="700.000000pt" viewBox="0 0 700.000000 700.000000"
 preserveAspectRatio="xMidYMid meet">
<metadata>
Created by potrace 1.14, written by Peter Selinger 2001-2017
</metadata>
<g transform="translate(0.000000,700.000000) scale(0.100000,-0.100000)"
fill="#000000" stroke="none">
<path d="M3528 6415 c-2 -1 -48 -5 -103 -9 -130 -8 -143 -10 -365 -52 -337
-64 -739 -246 -1065 -483 -136 -98 -334 -283 -446 -416 -19 -22 -42 -49 -52
-60 -42 -45 -172 -234 -237 -341 -150 -252 -296 -634 -334 -874 -3 -19 -7 -44
-10 -55 -4 -23 -18 -110 -22 -140 -22 -171 -21 -590 1 -675 2 -8 7 -40 10 -70
3 -30 17 -104 30 -165 21 -97 38 -160 102 -372 15 -49 14 -54 -4 -90 -17 -32
-98 -182 -261 -483 -19 -36 -47 -87 -62 -115 -96 -178 -123 -227 -155 -285
-72 -132 -125 -253 -138 -317 -43 -213 86 -423 300 -488 45 -14 187 -20 258
-11 17 2 64 7 105 11 41 4 86 8 100 10 14 1 54 5 90 9 116 12 164 17 190 21
14 2 59 6 100 10 41 4 86 8 100 10 14 2 59 7 100 10 41 4 86 8 100 10 14 1 59
6 100 10 41 4 82 8 90 10 8 1 49 6 90 10 41 3 86 8 100 10 14 2 59 6 100 10
41 4 86 8 100 10 125 18 145 17 236 -15 169 -60 379 -117 499 -134 22 -4 54
-9 70 -11 17 -3 42 -7 56 -9 183 -29 542 -24 749 9 52 9 111 18 130 21 92 15
341 87 460 133 651 254 1186 743 1491 1363 47 97 135 306 144 345 3 10 18 63
34 119 52 181 85 359 98 541 12 168 7 433 -11 563 -2 14 -7 48 -10 75 -6 41
-23 123 -51 245 -26 114 -74 262 -130 395 -336 810 -1045 1422 -1890 1629
-145 36 -219 49 -414 71 -54 7 -367 15 -373 10z m272 -589 c58 -3 132 -10 165
-16 33 -6 76 -13 95 -16 87 -14 209 -49 383 -110 85 -30 308 -147 412 -216
481 -321 824 -831 934 -1388 18 -90 19 -93 26 -155 4 -33 9 -71 11 -85 6 -37
6 -352 0 -381 -3 -13 -8 -49 -11 -79 -47 -457 -271 -921 -612 -1267 -296 -299
-643 -496 -1049 -593 -119 -29 -139 -33 -264 -47 -84 -10 -428 -10 -503 0
-190 26 -289 50 -502 122 -226 77 -262 80 -515 50 -14 -2 -54 -6 -90 -10 -36
-3 -81 -8 -100 -10 -19 -2 -62 -7 -95 -10 -74 -7 -138 -14 -190 -20 -22 -3
-65 -7 -95 -10 -30 -3 -75 -7 -100 -10 -49 -5 -101 -10 -200 -19 -36 -4 -81
-9 -100 -11 -35 -5 -60 -8 -180 -20 -36 -4 -75 -8 -88 -10 -27 -3 -28 5 -1 52
12 21 44 81 72 133 28 52 113 210 189 350 233 427 249 468 243 624 -2 65 -12
115 -43 213 -105 331 -125 447 -126 733 -1 250 8 343 50 529 67 293 225 617
425 866 145 181 359 370 564 496 226 139 532 255 763 289 42 6 88 13 102 16
14 2 68 7 120 10 52 4 96 7 98 9 1 1 26 1 55 -1 28 -1 99 -5 157 -8z"/>
<path d="M3524 5088 c-205 -36 -367 -119 -509 -262 -81 -82 -106 -114 -162
-212 -77 -135 -95 -221 -68 -320 41 -151 203 -242 354 -198 100 29 147 74 204
194 74 156 193 232 355 226 188 -7 334 -153 347 -346 8 -124 -160 -270 -446
-389 -131 -54 -196 -136 -206 -259 -13 -163 101 -295 265 -309 75 -6 101 1
250 66 295 128 530 330 642 551 126 249 92 594 -82 853 -85 126 -205 234 -338
306 -192 102 -397 136 -606 99z"/>
<path d="M3627 2909 c-61 -14 -112 -45 -155 -94 -98 -111 -97 -272 3 -383 140
-155 392 -119 478 68 65 142 20 291 -113 375 -56 35 -146 50 -213 34z"/>
</g>
</svg>
